Coordinates
version=1
nRows=32
nColumns=12
inDegrees=yes

Units are S.I. units (second, meters, Newtons, ...)
Angles are in degrees

endheader
time	SC_y	SC_z	SC_x	AC_y	AC_z	AC_x	GH_y	GH_z	GH_yy	EL_x	PS_y
       0.0              -35.62          18.54          3.071          40.27         -3.828         -18.34         -115.2          38.85          141.6           5.73          66.82
   0.01981              -35.62          18.53          3.077          40.28          -3.83         -18.34         -115.2          38.85          141.5          5.746          66.82
   0.03961              -35.62          18.53          3.083          40.28         -3.832         -18.33         -115.2          38.85          141.5          5.763          66.81
   0.05942              -35.62          18.53          3.089          40.28         -3.834         -18.33         -115.1          38.85          141.4          5.781           66.8
   0.07922              -35.62          18.52          3.096          40.29         -3.836         -18.32         -115.1          38.85          141.4            5.8          66.79
   0.09903              -35.62          18.52          3.103          40.29         -3.838         -18.32         -115.0          38.86          141.4          5.821          66.78
    0.1188              -35.62          18.51           3.11           40.3          -3.84         -18.32         -115.0          38.86          141.3          5.843          66.77
    0.1386              -35.62          18.51          3.118           40.3         -3.843         -18.31         -115.0          38.86          141.3          5.866          66.76
    0.1584              -35.62          18.51          3.127          40.31         -3.846          -18.3         -114.9          38.86          141.2          5.891          66.75
    0.1782              -35.62           18.5          3.136          40.31         -3.848          -18.3         -114.8          38.86          141.1          5.918          66.74
    0.1981              -35.62          18.49          3.146          40.32         -3.852         -18.29         -114.8          38.87          141.1          5.946          66.73
    0.2179              -35.62          18.49          3.157          40.33         -3.855         -18.28         -114.7          38.87          141.0          5.977          66.72
    0.2377              -35.62          18.48          3.168          40.33         -3.859         -18.28         -114.6          38.87          140.9          6.011           66.7
    0.2575              -35.62          18.48           3.18          40.34         -3.863         -18.27         -114.6          38.88          140.8          6.047          66.69
    0.2773              -35.62          18.47          3.194          40.35         -3.867         -18.26         -114.5          38.88          140.8          6.085          66.67
    0.2971              -35.62          18.46          3.208          40.36         -3.872         -18.25         -114.4          38.88          140.7          6.128          66.65
    0.3169              -35.62          18.45          3.224          40.37         -3.877         -18.24         -114.3          38.89          140.5          6.174          66.63
    0.3367              -35.62          18.44          3.242          40.38         -3.882         -18.23         -114.2          38.89          140.4          6.224          66.61
    0.3565              -35.62          18.43           3.26          40.39         -3.888         -18.21         -114.1           38.9          140.3          6.278          66.59
    0.3763              -35.62          18.42          3.281           40.4         -3.895          -18.2         -113.9           38.9          140.2          6.338          66.56
    0.3961              -35.62          18.41          3.304          40.42         -3.902         -18.18         -113.8          38.91          140.0          6.404          66.53
    0.4159              -35.62          18.39          3.329          40.43          -3.91         -18.17         -113.6          38.91          139.9          6.476           66.5
    0.4357              -35.62          18.38          3.356          40.45         -3.918         -18.15         -113.5          38.92          139.7          6.556          66.47
    0.4555              -35.62          18.36          3.387          40.47         -3.928         -18.13         -113.3          38.93          139.5          6.645          66.43
    0.4753              -35.62          18.34          3.421          40.49         -3.939          -18.1         -113.1          38.94          139.2          6.743          66.39
    0.4951              -35.61          18.32          3.458          40.51         -3.951         -18.08         -112.8          38.95          139.0          6.853          66.34
    0.5149              -35.61           18.3          3.501          40.54         -3.964         -18.05         -112.6          38.96          138.7          6.976          66.29
    0.5347              -35.61          18.27          3.548          40.57          -3.98         -18.02         -112.3          38.97          138.4          7.114          66.23
    0.5545              -35.61          18.24          3.602           40.6         -3.997         -17.98         -111.9          38.98          138.0           7.27          66.16
    0.5744              -35.61          18.21          3.663          40.64         -4.016         -17.94         -111.5           39.0          137.6          7.448          66.09
    0.5942              -35.61          18.17          3.733          40.68         -4.038         -17.89         -111.1          39.02          137.2           7.65           66.0
     0.614              -35.61          18.13          3.813          40.73         -4.064         -17.84         -110.6          39.04          136.6          7.883           65.9
